<svg width="355" height="276" viewBox="0 0 355 276" fill="none" xmlns="http://www.w3.org/2000/svg">
<path d="M329.876 186.394C352.336 214.771 337.898 257.258 327.871 274.955H0.000274658V105.02C91.2428 72.0999 153.157 111.048 172.459 130.754C191.76 150.46 197.275 152.778 233.621 145.128C269.968 137.477 301.802 150.924 329.876 186.394Z" fill="#EAF3FA"/>
<path d="M0.000976562 202.846C7.98166 185.156 24.1691 146.032 28.0093 134.785C32.5213 121.57 40.7933 111.601 55.0813 136.871C69.3692 162.141 84.9105 179.065 98.6972 188.57C112.484 198.075 129.78 206.19 137.049 207.581C144.318 208.972 148.83 206.885 152.841 201.785C156.852 196.684 157.604 197.148 159.86 204.567C162.116 211.985 164.873 214.999 168.382 211.29C168.447 211.222 168.511 211.154 168.574 211.087C171.931 207.533 173.042 206.356 180.916 215.231C187.079 222.179 183.869 256.631 181.237 274.955H0.000976562V202.846Z" fill="#C7DDF2"/>
<path d="M0.000976562 200.659C4.33774 199.9 11.0466 200.107 24.249 200.393C56.3343 201.089 79.1449 206.189 119.001 216.158C155.334 225.246 169.17 221.811 171.901 221.132C172.166 221.067 172.326 221.027 172.393 221.027C172.393 234.782 165.976 264.287 140.307 272.262C137.564 273.115 134.088 274.021 130.009 274.955H0.000976562V200.659Z" fill="#E2EFFF"/>
<path d="M0.000488281 236.393C12.312 242.186 35.7409 253.046 52.3236 256.034C70.398 259.29 81.8781 251.365 92.7331 243.872C93.47 243.363 94.2039 242.857 94.9369 242.355C106.468 234.473 113.486 234.009 126.521 238.878C139.556 243.746 142.313 240.964 146.574 236.096C150.836 231.227 160.361 219.868 165.875 213.144C166.108 212.861 166.332 212.587 166.547 212.323C171.426 206.341 172.011 205.624 180.414 213.84C188.612 221.855 190.901 217.118 194.233 210.221C194.467 209.736 194.706 209.241 194.953 208.739C198.713 201.089 209.993 178.137 214.003 170.487C218.014 162.836 219.769 161.445 225.534 165.618C230.288 169.059 238.451 177.545 243.839 183.146C244.985 184.337 246.005 185.398 246.841 186.252L246.863 186.274C251.61 191.127 253.865 193.432 257.369 189.265C260.878 185.092 264.387 185.788 267.145 188.338C269.902 190.888 282.937 202.248 296.222 213.608C306.827 222.676 312.481 218.596 319.685 213.397C321.506 212.083 323.426 210.698 325.55 209.435C331.023 212.849 337.395 220.118 341.383 231.703C339.742 249.224 333.187 265.573 327.871 274.955H0.000488281V236.393Z" fill="#D9E8FB"/>
<path d="M257.869 187.411C260.075 188.338 268.481 195.061 272.408 198.307C263.384 192.279 257.117 191.352 255.864 191.816C254.61 192.279 253.858 193.67 253.106 192.048C252.354 190.425 251.101 189.729 250.098 189.961C249.096 190.193 247.842 190.425 250.349 188.338C252.856 186.252 255.112 186.252 257.869 187.411Z" fill="#F8FBFF"/>
<path d="M212.247 165.618C216.258 168.215 226.284 176.746 230.796 180.688C229.71 180.147 226.786 178.787 223.778 177.674C220.018 176.283 220.018 177.674 220.77 179.529C221.522 181.383 222.023 183.933 219.516 184.165C217.01 184.397 211.996 182.079 206.482 179.297C200.967 176.515 199.212 178.137 198.46 179.297C197.708 180.456 196.455 181.151 194.951 180.688C193.447 180.224 193.196 179.992 194.951 177.21C196.706 174.428 196.956 173.733 201.218 167.705C205.479 161.677 207.234 162.373 212.247 165.618Z" fill="#F8FBFF"/>
<path d="M277.34 264.643C276.974 265.164 276.265 264.991 275.936 264.672C275.607 264.352 275.469 263.893 275.342 263.456C275.055 262.452 274.765 261.4 274.98 260.379C275.033 260.07 275.17 259.781 275.375 259.544C275.479 259.427 275.613 259.34 275.762 259.291C275.911 259.242 276.07 259.232 276.224 259.264C276.581 259.358 276.805 259.701 276.965 260.04C277.437 261.022 277.683 262.097 277.686 263.187C277.721 263.696 277.6 264.204 277.34 264.643Z" fill="#A8D99F"/>
<path d="M275.967 267.287C275.352 266.997 274.66 266.912 273.993 267.046C273.63 267.08 273.289 267.234 273.024 267.484C272.8 267.724 272.745 268.201 273.019 268.433C273.199 268.553 273.415 268.608 273.631 268.588C274.151 268.588 274.728 268.492 275.142 268.807C275.377 268.984 275.535 269.279 275.818 269.367C275.96 269.399 276.109 269.385 276.243 269.325C276.376 269.266 276.486 269.164 276.557 269.036C276.691 268.777 276.721 268.477 276.64 268.197C276.605 268.004 276.526 267.821 276.409 267.664C276.293 267.506 276.141 267.377 275.967 267.287Z" fill="#A8D99F"/>
<path d="M278.342 265.391C278.153 265.146 278.028 264.858 277.977 264.553C277.925 264.248 277.95 263.935 278.048 263.642C278.249 263.057 278.608 262.54 279.085 262.146C279.625 261.664 280.255 261.293 280.938 261.053C281.202 260.946 281.487 260.898 281.771 260.913C281.914 260.921 282.052 260.964 282.174 261.037C282.295 261.111 282.398 261.213 282.471 261.335C282.666 261.706 282.471 262.155 282.276 262.522C281.918 263.168 281.511 263.785 281.057 264.368C280.69 264.836 280.271 265.297 279.717 265.509C279.162 265.721 278.583 265.695 278.289 265.31" fill="#A8D99F"/>
<path d="M277.355 272.489C277.333 272.413 277.322 272.333 277.322 272.253C277.305 272.083 277.285 271.866 277.259 271.608C277.228 271.291 277.18 270.976 277.116 270.663C277.031 270.283 276.916 269.909 276.772 269.546C276.631 269.183 276.439 268.842 276.202 268.534C276.008 268.286 275.761 268.084 275.48 267.943C275.288 267.848 275.082 267.784 274.87 267.753C274.79 267.75 274.711 267.738 274.634 267.718C274.714 267.71 274.795 267.71 274.875 267.718C275.094 267.733 275.309 267.789 275.509 267.882C275.806 268.023 276.067 268.23 276.272 268.488C276.518 268.801 276.717 269.149 276.862 269.52C277.008 269.888 277.122 270.267 277.204 270.655C277.264 270.971 277.305 271.291 277.329 271.613C277.349 271.888 277.355 272.109 277.359 272.269C277.364 272.342 277.363 272.416 277.355 272.489Z" fill="#5E775A"/>
<path d="M277.311 271.993C277.306 271.957 277.306 271.92 277.311 271.884V271.571C277.311 271.297 277.311 270.915 277.3 270.418C277.276 269.445 277.195 268.103 277.035 266.626C276.875 265.15 276.658 263.821 276.463 262.867C276.414 262.629 276.368 262.415 276.325 262.227C276.281 262.039 276.248 261.875 276.213 261.743C276.178 261.612 276.158 261.525 276.14 261.437C276.128 261.403 276.121 261.367 276.121 261.33C276.136 261.363 276.148 261.398 276.158 261.433L276.25 261.735C276.289 261.864 276.331 262.025 276.377 262.214C276.423 262.402 276.478 262.616 276.529 262.854C276.797 264.096 276.998 265.352 277.132 266.616C277.292 268.094 277.364 269.441 277.368 270.416C277.368 270.904 277.368 271.291 277.351 271.571C277.351 271.7 277.336 271.803 277.331 271.886C277.327 271.922 277.321 271.958 277.311 271.993Z" fill="#5E775A"/>
<path d="M277.307 269.397C277.299 269.288 277.299 269.178 277.307 269.069C277.32 268.85 277.348 268.553 277.41 268.181C277.575 267.21 277.855 266.263 278.245 265.358C278.623 264.445 279.164 263.609 279.842 262.889C279.958 262.764 280.084 262.648 280.217 262.541C280.274 262.493 280.324 262.445 280.377 262.406L280.522 262.308C280.61 262.242 280.702 262.183 280.798 262.13C280.479 262.38 280.176 262.649 279.89 262.935C279.235 263.662 278.71 264.495 278.335 265.397C278.12 265.89 277.936 266.396 277.787 266.913C277.644 267.387 277.55 267.825 277.478 268.192C277.405 268.56 277.37 268.864 277.346 269.067C277.342 269.178 277.329 269.288 277.307 269.397Z" fill="#5E775A"/>
<path d="M41.2382 263.665C40.872 264.185 40.1637 264.013 39.8347 263.693C39.5058 263.374 39.3676 262.915 39.2404 262.478C38.9531 261.474 38.6636 260.422 38.8785 259.401C38.9319 259.092 39.0683 258.803 39.2733 258.565C39.3779 258.449 39.5113 258.362 39.6602 258.312C39.8091 258.263 39.9683 258.254 40.122 258.285C40.4795 258.379 40.7031 258.723 40.8632 259.062C41.3352 260.044 41.5816 261.119 41.5847 262.209C41.619 262.718 41.4983 263.225 41.2382 263.665Z" fill="#A8D99F"/>
<path d="M39.8652 266.309C39.2506 266.018 38.5582 265.934 37.8915 266.068C37.5284 266.102 37.1871 266.256 36.9222 266.506C36.6985 266.746 36.6437 267.223 36.9178 267.455C37.0977 267.575 37.3139 267.63 37.5297 267.61C38.0494 267.61 38.6262 267.514 39.0407 267.829C39.2753 268.006 39.4332 268.301 39.7161 268.388C39.8586 268.421 40.0078 268.407 40.1412 268.347C40.2746 268.287 40.3848 268.186 40.4552 268.058C40.5899 267.799 40.6197 267.499 40.5385 267.218C40.5035 267.026 40.4246 266.843 40.3079 266.686C40.1912 266.528 40.0398 266.399 39.8652 266.309Z" fill="#A8D99F"/>
<path d="M42.24 264.413C42.0515 264.168 41.9262 263.88 41.875 263.575C41.8237 263.27 41.8482 262.957 41.9461 262.664C42.147 262.079 42.506 261.562 42.9834 261.168C43.5234 260.686 44.153 260.314 44.8366 260.075C45.1008 259.968 45.3852 259.92 45.6699 259.935C45.8121 259.943 45.9501 259.986 46.072 260.059C46.1939 260.133 46.296 260.235 46.3695 260.357C46.5647 260.728 46.3695 261.177 46.1743 261.544C45.8167 262.19 45.409 262.807 44.955 263.39C44.5887 263.858 44.1699 264.319 43.615 264.531C43.0602 264.743 42.4812 264.717 42.1874 264.332" fill="#A8D99F"/>
<path d="M41.2535 271.511C41.2315 271.434 41.2205 271.355 41.2206 271.275C41.2031 271.104 41.1833 270.888 41.157 270.63C41.1263 270.312 41.0787 269.997 41.0145 269.685C40.9294 269.304 40.8142 268.93 40.6702 268.568C40.5295 268.205 40.3375 267.864 40.1 267.555C39.9062 267.307 39.6598 267.106 39.3785 266.965C39.1866 266.87 38.9808 266.805 38.7688 266.774C38.6888 266.771 38.6094 266.76 38.532 266.739C38.6122 266.731 38.693 266.731 38.7732 266.739C38.9928 266.755 39.2076 266.81 39.407 266.903C39.7046 267.044 39.9657 267.252 40.1702 267.509C40.4169 267.822 40.6157 268.17 40.7601 268.541C40.9063 268.909 41.0208 269.289 41.1022 269.676C41.1622 269.993 41.2039 270.313 41.2272 270.634C41.2469 270.91 41.2535 271.13 41.2579 271.29C41.2629 271.364 41.2614 271.438 41.2535 271.511Z" fill="#5E775A"/>
<path d="M41.2096 271.015C41.2039 270.978 41.2039 270.941 41.2096 270.905V270.593C41.2096 270.319 41.2096 269.937 41.1986 269.44C41.1745 268.467 41.0934 267.124 40.9333 265.648C40.7732 264.172 40.5561 262.843 40.3609 261.889C40.3127 261.651 40.2666 261.436 40.2227 261.248C40.1789 261.06 40.146 260.896 40.1109 260.765C40.0758 260.634 40.0561 260.546 40.0385 260.459C40.0262 260.425 40.0195 260.388 40.0188 260.352C40.034 260.385 40.0465 260.419 40.0561 260.455L40.1482 260.756C40.1877 260.885 40.2293 261.047 40.2754 261.235C40.3214 261.423 40.3763 261.638 40.4267 261.876C40.6953 263.118 40.8966 264.374 41.0298 265.637C41.1899 267.116 41.2622 268.463 41.2666 269.438C41.2666 269.926 41.2666 270.313 41.2491 270.593C41.2491 270.722 41.2337 270.824 41.2293 270.907C41.2255 270.944 41.2189 270.979 41.2096 271.015Z" fill="#5E775A"/>
<path d="M41.2049 268.419C41.1973 268.31 41.1973 268.2 41.2049 268.091C41.2181 267.872 41.2466 267.575 41.308 267.203C41.473 266.232 41.7535 265.285 42.1436 264.38C42.5213 263.467 43.0623 262.631 43.7401 261.911C43.8565 261.786 43.9818 261.67 44.1151 261.563C44.1721 261.515 44.2225 261.467 44.2752 261.428L44.4199 261.329C44.5079 261.264 44.6002 261.205 44.6962 261.152C44.3774 261.402 44.0742 261.671 43.7883 261.957C43.1336 262.684 42.6078 263.517 42.2335 264.419C42.0178 264.912 41.8347 265.418 41.6852 265.935C41.5427 266.409 41.4484 266.847 41.376 267.214C41.3036 267.582 41.2685 267.885 41.2444 268.089C41.2402 268.2 41.227 268.31 41.2049 268.419Z" fill="#5E775A"/>
<path d="M21.1313 204.278L24.4538 198.914L27.7763 204.278V274.955H21.1313V204.278Z" fill="#ADBE6C"/>
<path d="M27.7763 225.576L21.1313 226.522V223.525L27.7763 223.051V225.576Z" fill="#889555"/>
<path d="M27.7763 214.69L21.1313 213.901V211.219L27.7763 212.481V214.69Z" fill="#889555"/>
<path d="M27.7763 234.253L21.1313 235.199V236.935H27.7763V234.253Z" fill="#889555"/>
<path d="M41.542 235.199V226.838L8.31738 227.469L4.20386 232.675L8.95023 235.988L41.542 235.199Z" fill="#DAEE8F"/>
<path d="M8.79034 225.891L8.15749 217.53L40.7493 215.005L45.1792 218.319L41.0657 223.525L8.79034 225.891Z" fill="#C6D883"/>
<path d="M41.0664 205.54L40.4336 214.059L7.5254 211.85L3.25366 207.748L8.15825 203.331L41.0664 205.54Z" fill="#DAEE8F"/>
<path d="M311.524 273.656C309.811 262.882 314.034 245.352 316.36 237.933L315.911 237.346C310.103 249.005 309.58 266.541 310.044 273.852L311.524 273.656Z" fill="#B3D5F0"/>
<path d="M315.761 232.581C314.005 235.402 314.595 238.267 315.11 239.347C315.884 238.836 317.923 237.116 319.887 234.323C321.851 231.53 321.238 228.574 320.686 227.445C320.433 228.334 317.957 229.055 315.761 232.581Z" fill="#B3D5F0"/>
<path d="M319.908 241.97C317.467 242.432 316.071 243.957 315.229 245.293C314.556 246.363 313.798 247.078 313.504 247.302L313.399 248.078C314.414 248.39 317.284 248.469 320.646 246.286C324.007 244.103 324.81 241.883 324.791 241.045C324.055 241.605 322.35 241.507 319.908 241.97Z" fill="#B3D5F0"/>
<path d="M311.925 244.321C311.875 245.474 312.709 246.667 313.133 247.119C312.681 247.849 311.233 248.656 309.049 246.043C306.319 242.776 306.599 240.705 305.94 236.794C309.841 238.242 311.988 242.88 311.925 244.321Z" fill="#B3D5F0"/>
<path d="M308.238 260.825C309.675 262.706 310.414 264.281 310.603 264.834C309.312 265.583 306.12 264.758 304.211 262.26C302.302 259.763 301.769 257.846 300.871 256.671C303.13 256.58 306.442 258.475 308.238 260.825Z" fill="#B3D5F0"/>
<path d="M309.863 250.765C310.228 251.974 311.194 253.624 311.632 254.298C311.082 255.102 309.311 256.015 306.622 253.228C303.281 249.765 302.921 248.397 302.317 246.099L302.306 246.058C306.46 246.617 309.407 249.254 309.863 250.765Z" fill="#B3D5F0"/>
<path d="M311.677 269.591C311.391 270.923 311.002 271.652 310.843 271.851C311.72 271.881 314.195 271.3 317.08 268.736C319.964 266.173 320.278 263.983 320.075 263.209C319.408 263.251 317.559 263.635 315.493 264.833C312.912 266.33 312.035 267.926 311.677 269.591Z" fill="#B3D5F0"/>
<path d="M313.592 258.383C312.683 259.631 311.721 260.811 311.354 261.245C312.147 261.571 314.426 261.79 317.198 260.054C320.664 257.885 321.947 256.213 323.154 254.135C317.478 253.107 314.728 256.823 313.592 258.383Z" fill="#B3D5F0"/>
<path d="M310.593 275.187C317.103 263.132 334.695 248.836 342.677 243.194V242.267C327.983 249.5 313.866 267.537 308.751 275.187H310.593Z" fill="#6CB8EA"/>
<path d="M346.165 237.398C342.259 238.882 340.663 242.19 340.353 243.658C341.515 243.735 344.863 243.565 348.955 242.267C353.047 240.969 354.69 237.553 355 236.007C354.07 236.703 351.048 235.544 346.165 237.398Z" fill="#6CB8EA"/>
<path d="M343.143 249.918C340.353 248.527 337.795 248.99 335.935 249.686C334.447 250.242 333.145 250.381 332.68 250.381L331.983 251.077C332.758 252.159 335.563 254.415 340.585 254.786C345.607 255.157 348.103 253.55 348.723 252.7C347.56 252.7 345.933 251.309 343.143 249.918Z" fill="#6CB8EA"/>
<path d="M333.379 246.208C332.449 247.321 332.371 249.144 332.449 249.917C331.441 250.304 329.379 250.01 329.193 245.744C328.961 240.412 330.821 238.557 333.146 234.152C335.936 238.557 334.541 244.817 333.379 246.208Z" fill="#6CB8EA"/>
<path d="M317.104 259.886C317.104 262.854 316.639 264.987 316.407 265.682C314.547 265.45 311.989 262.205 311.989 258.263C311.989 254.322 312.919 252.004 312.919 250.149C315.244 251.772 317.104 256.177 317.104 259.886Z" fill="#6CB8EA"/>
<path d="M326.404 251.076C325.846 252.56 325.552 254.94 325.474 255.945C324.311 256.331 321.847 255.899 321.289 251.076C320.595 245.084 321.281 243.445 322.431 240.693L322.452 240.644C326.172 244.353 327.102 249.222 326.404 251.076Z" fill="#6CB8EA"/>
<path d="M313.849 271.246C312.547 272.359 311.601 272.792 311.291 272.869C312.144 273.564 315.058 274.863 319.893 274.492C324.729 274.121 326.713 272.173 327.101 271.246C326.403 270.782 324.264 269.762 321.288 269.391C317.569 268.928 315.476 269.855 313.849 271.246Z" fill="#6CB8EA"/>
<path d="M324.31 261.509C322.45 262.066 320.59 262.514 319.893 262.669C320.435 263.596 322.543 265.543 326.635 265.914C331.75 266.378 334.307 265.682 337.097 264.523C332.215 259.191 326.635 260.814 324.31 261.509Z" fill="#6CB8EA"/>
<rect x="0.928223" y="271.246" width="328.283" height="4.63669" fill="#EEF5FB"/>
<path d="M200.521 256.628C200.21 256.645 199.915 256.776 199.694 256.996C199.474 257.216 199.342 257.51 199.325 257.821C199.332 258.13 199.458 258.426 199.677 258.646C199.895 258.867 200.19 258.996 200.5 259.006C200.83 258.989 201.141 258.85 201.374 258.617C201.607 258.384 201.744 258.072 201.76 257.743C201.696 257.126 201 256.481 200.402 256.635" fill="#E0E0E0"/>
<path d="M232.91 266.504L236.66 250.567L217.688 250.84L218.343 275.691L249.355 275.045C249.347 274.939 249.341 274.819 249.335 274.692C249.299 273.972 249.251 272.987 248.665 272.622C244.081 269.77 232.91 266.504 232.91 266.504Z" fill="#083054"/>
<path d="M218.161 268.784L218.343 275.69L226.871 275.513L224.909 270.74L218.161 268.784Z" fill="#042746"/>
<path d="M245.026 131.663C245.026 131.663 244.492 174.802 242.212 201.772C240.225 225.272 236.004 262.1 236.004 262.1L215.251 262.1L214.9 188.795L210.183 133.252L245.026 131.663Z" fill="#2B468B"/>
<path d="M206.894 266.814L210.644 250.876L191.673 251.149L192.328 276L223.34 275.354C223.331 275.248 223.326 275.129 223.319 275.001C223.284 274.281 223.235 273.296 222.65 272.932C218.065 270.08 206.894 266.814 206.894 266.814Z" fill="#083054"/>
<path opacity="0.5" d="M210.183 133.252L214.899 188.795L215.054 221.063C224.182 219.099 234.723 230.299 238.853 236.145C239.745 227.719 240.702 218.35 241.493 209.839C233.236 203.443 215.414 179.17 210.183 133.252Z" fill="#233863"/>
<path d="M186.058 130.572C181.134 147.407 187.817 218.608 190.062 262.507L210.505 262.423L216.57 194.624L224.118 129.575L186.058 130.572Z" fill="#2B468B"/>
<path opacity="0.5" d="M184.597 141.118C184.871 136.62 185.342 133.021 186.058 130.572L217.061 129.76L215.589 152.857L184.597 141.118Z" fill="#233863"/>
<path d="M192.191 130.411C191.368 135.695 190.998 144.255 190.952 154.772C190.903 165.992 191.221 179.359 191.726 193.185C192.638 218.134 194.159 244.55 195.222 262.486L193.109 262.494C192.045 244.559 190.528 218.182 189.617 193.261C189.111 179.422 188.792 166.023 188.841 154.763C188.887 144.507 189.237 135.96 190.048 130.467L192.191 130.411Z" fill="#233863"/>
<path d="M224.009 133.728L222.285 147.056M219.824 165.997L222.285 147.056M227.527 132.325C227.74 135.345 226.621 146.33 222.285 147.056" stroke="#233863" stroke-linecap="round"/>
<path d="M187.936 83.0378L188.165 50.2509L204.667 45.3408C204.667 45.3408 209.239 49.9004 213.109 51.6541C216.265 53.0847 219.44 49.1989 221.199 47.0945C227.178 52.0049 238.925 57.4546 238.925 57.4546L241.248 133.027C241.248 133.027 233.588 133.325 224.013 133.361C211.54 133.407 195.817 133.008 189.542 130.922C187.08 130.104 185.321 128.467 184.266 128.116C186.056 108.825 187.936 88.4822 187.936 83.0378Z" fill="white"/>
<path d="M290.171 30.6095L276.805 25.699C277.155 24.9975 278.915 23.2438 285.246 25.699C290.311 27.6632 290.17 29.9079 290.171 30.6095Z" fill="#E09534"/>
<path d="M288.136 7.83019C280.2 12.972 278.785 20.9458 280.775 24.3824C280.141 25.2277 278.956 27.1965 277.557 29.6353L285.799 34.195C294.04 17.5186 294.377 3.78716 288.136 7.83019Z" fill="#FFB27E"/>
<path d="M276.805 25.699C273.641 34.8184 264.134 50.6021 256.052 52.005C251.011 52.8798 233.892 45.6916 221.94 46.7438L237.409 76.2063C237.409 76.2063 245.85 76.2063 260.976 71.9974C276.102 67.7885 287.27 39.4835 290.171 30.6095C286.299 28.8556 281.727 26.7512 276.805 25.699Z" fill="#F4A641"/>
<path d="M260.976 71.9975C245.85 76.2064 237.41 76.2064 237.41 76.2064L229.675 61.4751C237.042 64.8408 255.418 70.5624 269.982 66.5236C267.184 69.1485 264.168 71.1094 260.976 71.9975Z" fill="#E09534"/>
<path d="M238.925 57.4548C238.925 57.4548 227.179 52.0051 221.199 47.0947C224.755 54.811 224.052 60.7737 220.496 64.6318C225.42 89.7684 227.914 111.982 226.859 145.303C236.708 146.706 244.439 144.601 249.019 140.392C250.073 118.296 249.019 85.3257 238.925 57.4548Z" fill="#F4A641"/>
<path d="M204.707 44.9901C204.707 44.9901 198.014 46.7435 188.166 50.251C183.251 56.2136 181.131 71.6463 183.251 79.7137C184.783 105.28 183.243 137.937 183.243 137.937C194.499 142.848 196.962 143.9 213.142 146.004C213.142 108.475 210.651 77.6443 204.707 44.9901Z" fill="#F4A641"/>
<path d="M226.381 77.529C227.934 83.4802 230.943 99.7361 230.55 117.15M206.269 79.241C206.923 83.0726 208.28 93.7685 208.476 105.899M208.476 109.323C208.476 110.628 208.476 113.53 208.476 114.704" stroke="#E09534" stroke-linecap="round"/>
<path d="M193.439 117.594C190.274 119.698 184.998 125.31 183.238 127.765C191.68 127.485 193.556 120.867 193.439 117.594Z" fill="#E09534"/>
<path d="M195.197 122.855C195.197 122.855 193.849 122.1 189.921 117.243L183.238 123.907C183.238 123.907 189.579 130.922 195.197 134.079L201.529 126.362C201.529 124.609 197.66 121.101 195.197 122.855Z" fill="#FFB27E"/>
<path d="M184 123.146L183.237 123.907C183.237 123.907 189.578 130.922 195.197 134.078L201.528 126.362C201.528 125.821 201.161 125.114 200.58 124.446L194.534 131.815C190.544 129.573 186.189 125.385 184 123.146Z" fill="#E79B67"/>
<path d="M192.384 137.586L205.75 123.907L203.992 121.802L190.274 135.131L192.384 137.586Z" fill="#E0922C"/>
<path d="M183.238 127.765C184.998 125.31 190.274 119.698 193.439 117.594C190.274 113.385 177.259 93.7433 177.259 93.7433L184.645 82.5195L189.57 49.9004C189.57 49.9004 182.615 51.1908 174.094 60.7734C168.642 66.9048 156.506 82.5195 160.375 96.5493C162.987 106.019 178.315 123.206 183.238 127.765Z" fill="#F4A641"/>
<path d="M177.259 93.7434L184.645 82.5196L187.108 66.21L177.259 93.7434Z" fill="#E09534"/>
<path d="M214.861 54.5101C209.63 52.8803 204.781 47.8551 203.011 45.5462C207.71 40.0464 219.764 41.4717 221.398 45.9537C223.033 50.4356 221.398 56.5473 214.861 54.5101Z" fill="#E09534"/>
<path d="M214.861 54.51C209.63 52.8802 204.781 47.855 203.011 45.5461C202.739 47.9908 203.093 54.5915 206.689 61.4366C211.184 69.993 222.216 69.5856 224.259 59.8068C225.894 51.9838 223.033 47.3117 221.398 45.9536C223.033 50.4355 221.398 56.5473 214.861 54.51Z" fill="#F4A641"/>
<path d="M205.286 58.6971C205.859 61.3059 208.769 66.7191 215.833 67.5017M209.946 68.2354C210.846 69.2952 213.576 71.4638 217.305 71.6594" stroke="#C98124" stroke-linecap="round"/>
<path d="M214.995 54.5506C214.951 54.5374 214.906 54.5237 214.861 54.5097C212.194 53.6786 209.626 51.9647 207.515 50.1782V39.0267L220.445 41.0639V53.6806C219.708 54.4221 218.695 54.8868 217.377 54.9122C216.61 54.8998 215.794 54.7852 214.995 54.5506Z" fill="#FFB27E"/>
<path d="M220.445 41.0639L207.515 39.0267C209.768 46.3221 217.074 48.3798 220.445 48.4967V41.0639Z" fill="#E79B67"/>
<path d="M203.507 30.1683C203.254 29.3488 203.111 28.4995 203.082 27.6426L218.921 19.5679C220.1 20.0858 220.865 19.9998 222.29 21.9982C225.41 26.377 227.969 41.4806 221.719 43.857C219.546 44.707 213.607 45.0215 207.235 39.4801C206.952 38.55 206.523 37.7077 205.699 36.912C204.688 36.9728 203.451 36.5825 202.979 34.6207C202.566 32.9061 203.96 32.3801 205.115 33.6203L203.507 30.1683Z" fill="#FFB27E"/>
<path d="M217.402 24.213C212.245 22.9444 209.176 27.1607 206.971 31.1534C205.71 33.4386 202.999 33.4721 205.917 36.5878C208.028 38.8429 208.773 39.6758 205.625 38.8523C202.478 38.0288 200.736 33.5809 199.776 30.8874C198.815 28.1939 196.178 25.4138 197.004 22.275C197.83 19.1362 201.421 18.9713 203.609 20.8856C204.412 18.0362 205.731 15.5613 207.204 15.3831C208.678 15.205 212.252 15.0076 213.859 13.0932C215.466 11.1787 218.212 6.55099 221.337 7.66384C224.463 8.7767 227.887 15.6974 226.154 20.5919C224.841 24.3021 222.559 25.4815 217.402 24.213Z" fill="#2D3A64"/>
<path d="M200.53 32.8717C200.911 32.6134 201.158 31.7909 201.377 31.4397C201.962 30.501 201.917 29.0613 201.833 26.5461C201.799 25.5201 201.933 24.7657 202.203 24.2336C202.48 23.6888 202.894 23.3877 203.37 23.2783C203.832 23.1723 204.325 23.2525 204.769 23.4065C204.932 23.463 205.092 23.5306 205.246 23.6053C204.915 22.5701 204.731 21.2944 205.066 20.1977C205.283 19.4865 205.72 18.8502 206.467 18.4184C207.207 17.9903 208.227 17.7783 209.588 17.8576C212.88 18.0493 215.036 17.6535 216.362 16.9173C217.663 16.195 218.184 15.1353 218.197 13.8951C218.182 15.3306 218.14 16.5946 216.645 17.4244C215.176 18.2402 212.887 18.6312 209.554 18.437C208.264 18.362 207.369 18.5676 206.759 18.9206C206.154 19.27 205.803 19.7783 205.623 20.3667C205.343 21.2832 205.483 22.3913 205.772 23.3364C206.034 22.4976 206.373 21.8136 207.102 21.2877C208.044 20.6086 209.599 20.22 212.36 19.9352C214.544 19.71 216.467 19.3807 217.741 18.8015C218.378 18.5118 218.954 18.1595 219.33 17.8741C219.711 17.5841 219.912 17.0309 220.004 16.8423C219.854 17.1497 219.87 17.8829 219.459 18.1954C219.042 18.5124 218.493 18.8364 217.825 19.14C216.489 19.7476 214.661 20.2815 212.42 20.5126C209.65 20.7983 208.244 21.1807 207.444 21.758C206.668 22.3173 206.424 23.0844 206.092 24.3511L205.985 24.7591L205.641 24.5137C205.338 24.2974 204.963 24.0882 204.578 23.9549C204.19 23.8205 203.816 23.7716 203.501 23.844C203.199 23.9131 202.924 24.0981 202.723 24.4956C202.515 24.9057 202.382 25.5498 202.415 26.5268C202.498 29.0192 202.381 30.6178 201.689 31.7275C201.4 32.1916 201.017 32.5599 200.53 32.8717C200.453 32.6865 200.601 33.0521 200.53 32.8717Z" fill="#222D51"/>
<ellipse cx="2.85276" cy="5.10497" rx="2.85276" ry="5.10497" transform="matrix(-0.868631 0.494784 0.497245 0.867997 206.417 28.9915)" fill="#FFB27E"/>
<ellipse cx="0.991851" cy="1.77512" rx="0.991851" ry="1.77512" transform="matrix(-0.868631 0.494784 0.497245 0.867997 206.453 32.8028)" fill="#E79B67"/>
<path d="M130.875 275.682H157.446C157.446 270.716 144.785 275.835 141.464 263.748H130.875V275.682Z" fill="#2D3A64"/>
<path d="M130.875 240.835L141.464 241.403V263.747H130.875V240.835Z" fill="#FFB27E"/>
<path d="M125.171 275.684H100.058V262.675L109.547 262.163C112.34 273.847 125.33 270.553 125.171 275.684Z" fill="#2D3A64"/>
<path d="M109.547 240.986L100.069 240.986V262.743L109.547 262.163V240.986Z" fill="#FFB27E"/>
<path d="M127.057 260.459H143.83C143.83 260.459 142.11 174.023 135.281 128.916L113.937 130.48L127.057 260.459Z" fill="#35488C"/>
<path d="M113.939 260.155H96.3596C91.7768 226.853 90.8923 171.935 90.8926 128.916L114.937 128.916C119.381 180.965 113.939 260.155 113.939 260.155Z" fill="#35488C"/>
<path fill-rule="evenodd" clip-rule="evenodd" d="M112.92 144.41C113.08 137.931 112.438 131.987 111.663 128.987L112.215 128.845C113.009 131.913 113.651 137.914 113.49 144.424C113.329 150.931 112.365 157.994 109.915 163.168C106.187 171.04 104.326 176.505 104.386 181.828C104.446 187.148 106.425 192.366 110.478 199.741C113.369 205.003 114.019 212.311 113.453 219.047C112.887 225.781 111.098 232.022 109.04 235.159C106.671 238.772 106.296 243.726 107.215 248.425C108.133 253.124 110.333 257.499 113.033 259.945L112.649 260.366C109.833 257.814 107.589 253.312 106.655 248.533C105.72 243.754 106.083 238.63 108.563 234.848C110.545 231.825 112.322 225.693 112.884 219C113.447 212.309 112.79 205.134 109.978 200.015C105.914 192.62 103.877 187.3 103.816 181.835C103.754 176.374 105.666 170.808 109.399 162.925C111.798 157.859 112.76 150.89 112.92 144.41ZM102.122 163.786C108.674 148.725 107.011 134.301 105.373 129L105.918 128.832C107.59 134.244 109.258 148.811 102.646 164.012C96.1163 179.022 101.364 191.662 105.209 199.756C107.165 203.874 107.704 209.499 107.279 215.679C106.853 221.866 105.457 228.642 103.513 235.085C101.102 243.074 101.535 248.692 102.816 252.604C104.011 256.256 105.952 258.443 107.076 259.708C107.157 259.8 107.233 259.888 107.305 259.967L106.876 260.343C106.804 260.26 106.727 260.175 106.646 260.084C105.515 258.81 103.506 256.546 102.273 252.78C100.951 248.742 100.528 243.003 102.967 234.922C104.902 228.509 106.287 221.775 106.709 215.64C107.132 209.498 106.588 203.988 104.693 200C100.837 191.882 95.4876 179.038 102.122 163.786ZM96.0821 163.821C100.437 148.527 97.8933 134.225 96.0869 129.009L96.626 128.823C98.4643 134.13 101.023 148.554 96.6308 163.977C91.1807 183.115 94.8342 194.972 97.9172 199.723C99.5308 202.21 100.601 207.041 100.745 213.221C100.888 219.417 100.101 227.017 97.9534 235.077C94.5609 247.812 100.26 256.989 102.609 259.979L102.159 260.331C99.753 257.265 93.9454 247.906 97.4021 234.93C99.5359 226.921 100.317 219.375 100.175 213.234C100.032 207.078 98.9623 202.381 97.4383 200.032C94.2463 195.113 90.598 183.079 96.0821 163.821Z" fill="#2D3A64"/>
<path fill-rule="evenodd" clip-rule="evenodd" d="M116.628 178.292C116.59 180.755 116.548 183.424 116.509 186.371L116.224 186.367C116.263 183.419 116.305 180.75 116.343 178.287C116.581 163.009 116.695 155.679 115.285 139.167L115.57 139.143C116.981 155.67 116.866 163.012 116.628 178.292Z" fill="#2D3A64"/>
<path fill-rule="evenodd" clip-rule="evenodd" d="M121.646 159.145C124.938 144.321 120.266 134.337 117.573 131.236L118.004 130.863C120.827 134.114 125.529 144.286 122.203 159.268C118.086 177.817 123.483 192.399 125.463 196.63C125.523 196.757 125.584 196.888 125.647 197.022C126.639 199.129 128.019 202.059 128.695 206.412C129.415 211.041 129.34 217.263 127.194 225.824C125.924 231.955 126.499 239.15 127.908 245.52C129.318 251.896 131.554 257.399 133.564 260.15L133.103 260.485C131.026 257.641 128.769 252.052 127.351 245.642C125.932 239.226 125.342 231.942 126.637 225.703L126.638 225.697L126.64 225.692C128.771 217.19 128.838 211.042 128.132 206.499C127.468 202.227 126.118 199.361 125.13 197.26C125.067 197.127 125.006 196.997 124.946 196.87C122.934 192.569 117.493 177.856 121.646 159.145Z" fill="#2D3A64"/>
<path fill-rule="evenodd" clip-rule="evenodd" d="M126.924 159.714C130.215 144.889 125.543 134.906 122.851 131.805L123.282 131.432C126.104 134.683 130.807 144.855 127.481 159.837C123.363 178.386 128.761 192.967 130.741 197.198C130.8 197.326 130.862 197.457 130.925 197.591C131.917 199.698 133.296 202.627 133.973 206.981C134.692 211.61 134.617 217.832 132.472 226.393C131.201 232.525 131.741 239.578 133.114 245.804C134.488 252.038 136.688 257.399 138.699 260.15L138.238 260.485C136.161 257.644 133.939 252.195 132.557 245.927C131.173 239.652 130.62 232.51 131.914 226.272L131.915 226.266L131.917 226.26C134.048 217.759 134.115 211.611 133.409 207.068C132.745 202.796 131.396 199.93 130.407 197.829C130.344 197.696 130.283 197.566 130.224 197.439C128.211 193.138 122.77 178.425 126.924 159.714Z" fill="#2D3A64"/>
<path fill-rule="evenodd" clip-rule="evenodd" d="M132.343 159.288C135.634 144.463 130.962 134.479 128.27 131.378L128.701 131.006C131.523 134.256 136.226 144.428 132.9 159.41C128.782 177.959 134.179 192.541 136.16 196.772C136.219 196.899 136.281 197.03 136.344 197.164C137.336 199.271 138.715 202.201 139.392 206.554C140.111 211.183 140.036 217.406 137.891 225.966C136.619 232.1 137.089 239.262 138.391 245.595C139.695 251.936 141.824 257.402 143.833 260.15L143.372 260.485C141.292 257.641 139.143 252.084 137.832 245.709C136.52 239.329 136.039 232.082 137.333 225.845L137.334 225.84L137.336 225.834C139.467 217.332 139.534 211.184 138.828 206.641C138.164 202.37 136.815 199.503 135.826 197.402C135.763 197.269 135.702 197.139 135.643 197.012C133.63 192.711 128.189 177.998 132.343 159.288Z" fill="#2D3A64"/>
<path d="M135.394 129.77H90.8988C90.8212 128.444 90.7456 127.117 90.6743 125.788L135.239 126.926C135.288 127.874 135.339 128.823 135.394 129.77Z" fill="black"/>
<path d="M135.297 128.063L90.7588 127.352C90.8968 129.819 90.8974 129.432 90.8974 131.903L136.184 132.756L135.297 128.063Z" fill="#FCB84A"/>
<path d="M101.384 75.1475C103.404 77.8341 105.762 80.2315 110.477 80.2315C115.192 80.2315 115.192 73.8509 115.192 73.8509C115.192 73.8509 120.192 74.3625 122.937 75.1942C125.352 75.9256 128.326 77.5449 128.326 77.5449L136.409 135.26C136.409 135.26 103.988 136.818 89.9331 135.931L95.476 78.0485L101.384 75.1475Z" fill="#FFF6E5"/>
<path opacity="0.4" d="M115.192 73.8509C115.192 73.8509 115.192 80.2315 110.477 80.2315C105.762 80.2315 103.404 77.8341 101.384 75.1475L99.3311 76.1555C100.884 78.4069 105.61 83.2033 111.104 82.4207C116.598 81.6381 117.399 76.3836 117.236 74.0987C116.043 73.938 115.192 73.8509 115.192 73.8509Z" fill="#F4A641"/>
<path d="M99.3879 122.208C99.4949 122.258 99.6077 122.295 99.7237 122.317L100.711 122.57C101.135 122.68 101.663 122.796 102.273 122.912C102.883 123.028 103.589 123.178 104.37 123.288C105.919 123.554 107.797 123.773 109.853 123.971C111.909 124.169 114.211 124.285 116.61 124.381C121.407 124.552 125.752 124.593 128.898 124.702C130.467 124.757 131.735 124.805 132.612 124.846L133.626 124.88C133.745 124.892 133.864 124.892 133.983 124.88C133.87 124.843 133.752 124.823 133.633 124.819L132.626 124.716C131.749 124.627 130.474 124.545 128.904 124.456C125.766 124.285 121.414 124.203 116.624 124.033C114.225 123.937 111.95 123.814 109.88 123.657C107.81 123.5 105.953 123.288 104.398 123.055C103.616 122.96 102.917 122.83 102.342 122.727C101.766 122.625 101.197 122.536 100.765 122.447L99.7717 122.263C99.6477 122.223 99.518 122.205 99.3879 122.208Z" fill="#FF725E"/>
<path d="M99.5255 116.379C99.6378 116.406 99.7526 116.422 99.8682 116.427L100.834 116.488L104.412 116.659C107.427 116.789 111.594 116.946 116.199 117.096C120.805 117.247 124.978 117.363 127.994 117.431L131.571 117.493H132.544C132.658 117.511 132.773 117.511 132.887 117.493C132.775 117.461 132.66 117.445 132.544 117.445L131.578 117.377L128.007 117.206C124.985 117.076 120.818 116.919 116.213 116.768C111.608 116.618 107.434 116.502 104.419 116.44L100.841 116.379H99.8682C99.7544 116.364 99.6392 116.364 99.5255 116.379Z" fill="#FF725E"/>
<path d="M98.3995 108.021C98.4996 108.082 98.6081 108.128 98.7216 108.158L99.6673 108.473C100.49 108.753 101.723 109.088 103.204 109.45C104.684 109.812 106.527 110.133 108.556 110.454C110.584 110.775 112.825 110.953 115.19 111.062C119.222 111.224 123.261 111.158 127.286 110.864C128.828 110.755 130.075 110.646 130.931 110.557L131.925 110.447C132.042 110.444 132.157 110.423 132.268 110.386C132.152 110.37 132.034 110.37 131.918 110.386L130.925 110.427L127.265 110.618C124.181 110.769 119.912 110.926 115.203 110.714C112.853 110.605 110.619 110.393 108.597 110.133C106.575 109.873 104.766 109.539 103.258 109.211C101.751 108.883 100.517 108.582 99.7084 108.35L98.7421 108.097C98.6321 108.056 98.5167 108.03 98.3995 108.021Z" fill="#FF725E"/>
<path d="M98.1626 100.559C98.5959 100.668 99.0353 100.753 99.4784 100.812C100.328 100.962 101.534 101.222 103.035 101.591C104.536 101.96 106.297 102.445 108.278 102.957C110.419 103.533 112.6 103.953 114.802 104.215C118.84 104.625 122.918 104.111 126.727 102.711C127.874 102.29 128.987 101.783 130.057 101.194C130.441 100.996 130.743 100.805 130.914 100.689C131.015 100.634 131.109 100.567 131.195 100.491C130.782 100.661 130.379 100.855 129.989 101.071C128.903 101.609 127.783 102.077 126.637 102.472C122.853 103.782 118.828 104.248 114.843 103.839C112.654 103.583 110.485 103.174 108.353 102.616C106.38 102.131 104.605 101.666 103.097 101.331C101.589 100.996 100.356 100.771 99.4989 100.648C99.074 100.586 98.7382 100.559 98.5121 100.538C98.3952 100.526 98.2771 100.533 98.1626 100.559Z" fill="#FF725E"/>
<path d="M113.573 98.8437C114.385 98.7111 115.204 98.6358 116.027 98.6182C116.787 98.6182 117.692 98.6728 118.713 98.707C119.827 98.7721 120.944 98.6754 122.03 98.42C123.975 97.8552 125.784 96.902 127.348 95.6182C127.958 95.1467 128.431 94.7503 128.76 94.4701C129.089 94.1899 129.253 94.0191 129.233 93.9986C128.523 94.4364 127.837 94.9109 127.177 95.42C125.602 96.6146 123.824 97.5152 121.927 98.0783C120.869 98.3188 119.784 98.4199 118.699 98.379C117.692 98.379 116.774 98.3243 115.999 98.379C115.387 98.3989 114.778 98.4814 114.183 98.625C113.968 98.6613 113.762 98.7353 113.573 98.8437Z" fill="#FF725E"/>
<path d="M97.362 91.8661C97.9637 92.3125 98.6061 92.7015 99.2808 93.0279C100.494 93.7112 102.207 94.5381 104.153 95.365C106.1 96.1919 107.902 96.8411 109.218 97.2579C109.921 97.5148 110.646 97.7069 111.384 97.832C110.717 97.5164 110.03 97.2448 109.328 97.0188C108.032 96.5404 106.257 95.8639 104.318 95.0438C102.378 94.2238 100.658 93.4037 99.4179 92.8024C98.7535 92.4464 98.0668 92.1337 97.362 91.8661Z" fill="#FF725E"/>
<path d="M116.874 74.1867C116.874 74.1867 122.819 74.1465 126.977 76.5374C135.535 81.4579 134.285 97.5644 135.075 101.022C135.865 104.48 137.638 118.329 137.638 118.329C137.638 118.329 140.73 124.92 142.035 127.281C143.341 129.643 145.015 149.279 145.015 149.279C145.015 149.279 145.95 155.448 143.126 155.857C139.217 156.423 132.605 156.465 128.661 157.135C127.988 148.404 127.167 141.246 127.314 131.277C127.431 123.341 128.682 119.224 126.977 111.127C126.545 109.071 125.057 104.505 123.834 102.962C122.611 101.418 119.265 93.4192 118.942 89.4167C118.619 85.4142 116.874 74.1867 116.874 74.1867Z" fill="#F4A641"/>
<path opacity="0.6" d="M143.126 155.857C145.95 155.448 145.015 149.279 145.015 149.279C145.015 149.279 144.753 146.204 144.355 142.341C144.495 149.189 143.479 154.08 139.31 155.058C135.14 156.037 131.952 153.346 130.971 154.325C130.265 155.028 129.903 155.785 129.778 156.167C130.037 154.937 128.626 149.753 127.861 147.232C128.105 150.468 128.395 153.678 128.661 157.135C132.605 156.465 139.217 156.423 143.126 155.857Z" fill="#E09534"/>
<path d="M97.342 77.1625C97.342 77.1625 100.635 90.9232 100.964 91.5861C101.293 92.2489 105.432 116.187 104.274 120.458C103.115 124.729 99.0686 129.428 100.035 134.635C101.001 139.842 100.643 143.508 99.3208 149.863C97.9981 156.218 97.0044 158.143 97.0044 158.143L86.5637 153.777C86.5637 153.777 84.2418 147.54 85.0711 142.094C85.9003 136.647 86.5387 136.362 87.9109 131.948C93.1428 115.12 78.481 92.657 85.5534 85.6048C89.2591 81.9096 92.5407 79.3929 97.342 77.1625Z" fill="#F4A641"/>
<path d="M97.3416 77.1625C97.3416 77.1625 100.634 90.9232 100.963 91.5861C101.292 92.2489 105.431 116.187 104.273 120.458C103.115 124.729 99.0682 129.428 100.035 134.635C100.988 139.775 100.652 143.412 99.3712 149.617C99.3528 149.702 99.3358 149.784 99.3203 149.863C99.3375 149.781 99.3544 149.699 99.3712 149.617C99.967 146.868 102.015 140.993 101.293 136.96C100.067 130.112 102.764 128.156 104.971 124.976C107.179 121.797 106.688 117.395 104.273 102.72C102.341 90.9808 98.8471 80.7903 97.3416 77.1625Z" fill="#E09534"/>
<path d="M132.032 90.6416C129.035 83.9675 121.929 74.858 121.929 74.858C121.929 74.858 136.032 76.6287 143.145 83.9251C152.606 93.6293 155.663 119.313 155.663 119.313L148.46 129.436C148.217 129.81 147.876 130.109 147.474 130.303C147.072 130.496 146.624 130.576 146.18 130.533C145.735 130.49 145.311 130.327 144.954 130.06C144.596 129.793 144.319 129.434 144.153 129.021L137.52 113.157C137.52 113.157 135.739 98.9007 132.032 90.6416Z" fill="#F4A641"/>
<path d="M126.8 81.6866C130.726 85.3555 134.405 87.5568 134.405 107.611" stroke="#DB953A" stroke-linecap="round"/>
<path d="M89.5607 82.1227C89.5607 82.1227 83.3536 86.3807 82.2312 90.7259C81.1089 95.0712 76.2972 111.987 76.2972 111.987C76.2972 111.987 73.2084 117.493 73.5314 122.228C73.5365 122.275 73.5416 122.321 73.5468 122.368C73.6524 123.51 74.0229 124.611 74.6292 125.585C75.2354 126.559 76.0607 127.38 77.0397 127.981C78.0187 128.582 79.1246 128.948 80.2698 129.049C81.4151 129.15 82.5682 128.984 83.6381 128.564L87.7683 126.932L93.1293 108.476L89.5607 82.1227Z" fill="#F4A641"/>
<path d="M76.5217 112.258C81.1816 109.568 90.0581 107.122 89.2738 119.84" stroke="#E89C3A" stroke-linecap="round"/>
<path d="M171.498 116.478C171.206 116.658 158.741 129.896 153.904 132.376C153.757 132.453 153.615 132.522 153.467 132.586C151.812 133.303 149.942 133.352 148.252 132.72C146.562 132.089 145.184 130.828 144.409 129.202C144.447 127.847 144.783 126.516 145.394 125.304C146.004 124.092 146.874 123.029 147.942 122.189C149.891 120.668 152.002 119.366 154.238 118.306L171.498 116.478Z" fill="#FFB27E"/>
<path d="M95.1619 126.781L98.2003 90.6631L116.718 94.1687L134.263 91.2652L150.263 93.1504L166.466 86.7134L168.437 126.289L151.079 131.834L135.07 127.923L116.074 132.356L95.1619 126.781Z" fill="#C7DDF2"/>
<path d="M166.465 86.7134L150.262 93.1504L151.078 131.834L168.436 126.289L166.465 86.7134Z" fill="#B3D5F0"/>
<path d="M134.264 91.2654L116.719 94.1689L116.075 132.356L135.071 127.923L134.264 91.2654Z" fill="#B3D5F0"/>
<path d="M95.163 126.782L95.5144 126.89L96.5541 127.175L100.624 128.286L116.047 132.459L116.1 132.448L135.084 128.058L135.025 128.07L151.024 132.003L151.064 131.995L151.104 131.988L168.472 126.462L168.598 126.436L168.572 126.311C168.033 115.459 167.441 103.59 166.837 91.2572C166.758 89.7478 166.685 88.2418 166.616 86.7393L166.608 86.4943L166.38 86.5879L150.17 93.0263L150.256 93.0091L134.257 91.1305L134.211 91.1398L116.668 94.0564L116.721 94.0459L98.1947 90.5626L98.052 90.5363L98.0454 90.6746C97.1318 101.817 96.3957 110.869 95.8896 117.136C95.6425 120.247 95.448 122.663 95.3126 124.313C95.2561 125.126 95.2088 125.745 95.172 126.177L95.1326 126.801C95.1326 126.801 95.1642 126.583 95.2024 126.157C95.2405 125.732 95.305 125.096 95.3799 124.272C95.5285 122.619 95.7416 120.193 95.9953 117.08C96.5344 110.807 97.3181 101.821 98.2845 90.7022L98.1287 90.8155L116.694 94.3185L134.241 91.4282L134.195 91.4375L150.189 93.3239L150.228 93.316L150.268 93.3081L166.479 86.8764L166.242 86.725C166.313 88.2178 166.387 89.7237 166.463 91.2429C167.079 103.566 167.676 115.428 168.218 126.293L168.329 126.127L150.975 131.691L151.055 131.675L135.048 127.778L135.029 127.781L116.042 132.261L116.088 132.252L100.684 128.206L96.5805 127.135L95.517 126.869L95.163 126.782Z" fill="#A4C8E6"/>
<path d="M151.079 131.835C151.172 131.816 151.069 123.171 150.846 112.489C150.622 101.807 150.359 93.146 150.264 93.1513C150.168 93.1566 150.267 101.816 150.491 112.498C150.714 123.181 150.958 131.845 151.079 131.835Z" fill="#8BB4D5"/>
<path d="M135.059 127.926C135.158 127.907 135.055 119.707 134.81 109.598C134.564 99.4881 134.328 91.2741 134.226 91.2807C134.125 91.2873 134.236 99.4987 134.474 109.603C134.712 119.707 134.977 127.929 135.059 127.926Z" fill="#8BB4D5"/>
<path d="M116.466 132.265C116.559 132.246 116.719 123.85 116.81 113.468C116.901 103.086 116.904 94.6596 116.808 94.6583C116.712 94.657 116.556 103.079 116.465 113.462C116.375 123.844 116.37 132.263 116.466 132.265Z" fill="#8BB4D5"/>
<path d="M176.147 103.454C175.707 102.791 175.02 102.08 174.437 101.948C170.667 101.559 161.904 105.064 163.013 109.499C163.954 113.262 170.68 117.303 170.68 117.303C176.195 114.712 176.669 112.148 177.158 109.835C177.646 107.521 177.462 105.435 176.147 103.454Z" fill="#FFB27E"/>
<path d="M102.055 101.724C95.9938 102.731 93.2998 108.44 93.2998 108.44C93.2998 108.44 93.3096 114.468 97.6782 115.829C106.38 115.674 107.759 100.776 102.055 101.724Z" fill="#FFB27E"/>
<path d="M93.6582 108.236L81.3303 113.769C79.8303 114.44 78.4934 115.426 77.4113 116.66C76.3292 117.895 75.5275 119.347 75.0611 120.919C74.5761 122.675 74.2153 124.451 74.5617 125.447C75.4233 127.927 78.3416 129.946 78.3416 129.946C78.3416 129.946 86.2732 128.5 88.5943 126.125C90.9153 123.751 92.6477 119.839 92.6477 119.839L97.6167 115.722L93.6582 108.236Z" fill="#FFB27E"/>
<path d="M77.4109 116.66C78.493 115.426 79.8299 114.44 81.33 113.769L87.4939 111.002C83.9999 112.889 77.0119 118.03 77.0119 123.509C77.0119 128.987 80.6092 129.439 82.4078 128.981C80.2151 129.604 78.3412 129.946 78.3412 129.946C78.3412 129.946 75.4229 127.927 74.5613 125.446C74.2149 124.451 74.5757 122.675 75.0607 120.919C75.5271 119.347 76.3288 117.894 77.4109 116.66Z" fill="#E69F6F"/>
<path d="M99.0252 43.7707L111.477 39.1853C115.535 38.3174 118.79 43.06 119.42 47.0851C120.202 51.609 120.969 57.1647 120.791 60.6226C120.432 67.4829 115.399 68.9829 115.27 69.0008C115.28 69.0349 115.33 69.3483 115.527 71.4536C115.527 71.4536 115.864 80.5208 111.149 80.5208C106.434 80.5208 103.403 77.8342 101.382 75.1476V68.142L96.6674 60.7539L97.1337 46.4359C97.055 45.8358 97.206 45.2282 97.5566 44.7343C97.9071 44.2403 98.4316 43.8963 99.0252 43.7707Z" fill="#FFB27E"/>
<path d="M100.035 66.1274C96.6676 61.09 98.5398 57.6576 100.372 57.3959C101.807 57.191 102.355 58.2963 102.638 59.2718C102.62 56.8543 102.655 53.054 104.75 51.484C106.844 49.914 108.153 50.4373 107.891 48.8673C107.629 47.2973 109.203 45.9737 109.465 48.3287C109.727 50.6838 112.604 48.876 112.604 44.9422C112.604 43.6272 114.48 42.4279 115.527 45.3063C116.574 48.1847 119.383 47.3911 119.906 50.0079C119.928 48.9034 119.21 45.2397 118.558 43.2914C116.777 37.9691 108.689 34.1253 103.066 35.5675C99.9958 36.3551 99.5514 39.2599 96.896 43.1105C93.7376 47.6904 91.7075 51.2195 91.2216 54.6627C92.2896 60.0825 97.6779 65.1199 100.035 66.1274Z" fill="#2D3A64"/>
<path d="M91.6008 43.1665C87.4752 42.0122 76.3551 43.0701 81.7319 51.1495C96.2673 72.991 68.401 116.155 45.6846 98.9502C67.0961 95.0939 39.1688 82.6409 51.5078 74.4874C61.5239 67.869 61.9759 68.5207 62.8498 59.1382C63.7238 49.7554 57.9152 44.0872 62.5585 38.3631C72.6058 25.9765 88.9466 32.8995 93.8728 37.6012C93.5731 38.2254 92.6993 40.2122 91.6008 43.1665Z" fill="#2D3A64"/>
<path d="M92.8069 40.8858C88.7053 43.3397 89.6906 45.8394 90.944 47.657C90.2705 51.3511 90.607 58.7392 97.6794 63.7765C97.8503 62.4132 97.3526 60.2629 96.669 59.4108C86.4645 46.6914 122.008 41.6355 112.118 37.1368C102.377 32.7061 97.9337 37.8184 92.8069 40.8858Z" fill="#2D3A64"/>
<path d="M99.8292 37.0315L91.0974 47.9582C87.4549 48.8869 87.9792 43.1982 92.1637 38.4755C96.3485 33.7529 98.2241 35.0678 99.8292 37.0315Z" fill="#10172E"/>
<path d="M115.33 69.049C112.109 69.4403 108.842 68.9317 105.893 67.5797C105.893 67.5797 108.703 72.0694 115.488 70.7027L115.33 69.049Z" fill="#DE996B"/>
</svg>
