<svg xmlns="http://www.w3.org/2000/svg" width="63" height="64" viewBox="0 0 63 64" fill="none">
  <ellipse cx="31.5124" cy="32.057" rx="31.1891" ry="31.2179" fill="none"/>
  <path d="M54.6435 52.9979C51.0498 56.9748 46.4932 59.9581 41.413 61.6603C36.3327 63.3625 30.9 63.7262 25.6385 62.7163C20.377 61.7064 15.4641 59.357 11.3734 55.8945C7.28257 52.432 4.15182 47.9732 2.28284 42.9478C0.413856 37.9224 -0.130331 32.4998 0.702724 27.2027C1.53578 21.9056 3.71799 16.9126 7.03903 12.7049C10.3601 8.49725 14.708 5.21675 19.6637 3.1796C24.6194 1.14246 30.0158 0.417359 35.3328 1.07419L34.3777 8.8199C30.3899 8.32727 26.3426 8.8711 22.6258 10.399C18.9091 11.9268 15.6482 14.3872 13.1574 17.543C10.6666 20.6987 9.02993 24.4435 8.40514 28.4163C7.78035 32.3891 8.18849 36.456 9.59023 40.2251C10.992 43.9941 13.34 47.3383 16.4081 49.9351C19.4762 52.532 23.1609 54.2941 27.107 55.0515C31.0531 55.8089 35.1276 55.5361 38.9378 54.2595C42.748 52.9828 46.1654 50.7453 48.8607 47.7627L54.6435 52.9979Z" fill="#F3F3F3"/>
  <path d="M31.5124 4.74135C31.5124 2.5862 33.2663 0.813928 35.4046 1.08312C40.4092 1.71315 45.2071 3.5518 49.3739 6.46531C54.6114 10.1276 58.599 15.3115 60.7972 21.316C62.9955 27.3204 63.2984 33.8558 61.6649 40.0382C60.3655 44.9565 57.8905 49.4626 54.4776 53.18C53.0198 54.768 50.5351 54.5485 49.143 52.9026C47.7527 51.2588 47.9876 48.817 49.3767 47.1721C51.6066 44.5317 53.2355 41.4166 54.1268 38.0429C55.3519 33.4061 55.1247 28.5046 53.476 24.0012C51.8273 19.4979 48.8367 15.6099 44.9085 12.8632C42.0523 10.8661 38.8006 9.54235 35.3966 8.96861C33.2714 8.61041 31.5124 6.8965 31.5124 4.74135Z" fill="#D3ED68"/>
</svg>